<svg xmlns="http://www.w3.org/2000/svg" xmlns:xlink="http://www.w3.org/1999/xlink" width="1600" zoomAndPan="magnify" viewBox="0 0 1200 1199.999942" height="1600" preserveAspectRatio="xMidYMid meet" version="1.0"><defs><clipPath id="f2c608d588"><path d="M 110.96875 100.652344 L 1141.46875 100.652344 L 1141.46875 1131 L 110.96875 1131 Z M 110.96875 100.652344 " clip-rule="nonzero"/></clipPath><clipPath id="be600536dd"><path d="M 154.605469 988.816406 L 247.605469 988.816406 L 247.605469 1097.566406 L 154.605469 1097.566406 Z M 154.605469 988.816406 " clip-rule="nonzero"/></clipPath><clipPath id="816d0489fd"><path d="M 585.34375 992.125 L 678.34375 992.125 L 678.34375 1100.875 L 585.34375 1100.875 Z M 585.34375 992.125 " clip-rule="nonzero"/></clipPath><clipPath id="b7200badb1"><path d="M 1016 992.125 L 1108.992188 992.125 L 1108.992188 1100.875 L 1016 1100.875 Z M 1016 992.125 " clip-rule="nonzero"/></clipPath><clipPath id="b26057086f"><path d="M 1015.230469 561.253906 L 1108.230469 561.253906 L 1108.230469 670.003906 L 1015.230469 670.003906 Z M 1015.230469 561.253906 " clip-rule="nonzero"/></clipPath><clipPath id="66e196dc96"><path d="M 109.472656 525.96875 L 283.6875 525.96875 L 283.6875 703.585938 L 109.472656 703.585938 Z M 109.472656 525.96875 " clip-rule="nonzero"/></clipPath><clipPath id="a4ea29cd65"><path d="M 196.582031 525.96875 C 148.472656 525.96875 109.472656 565.652344 109.472656 614.601562 C 109.472656 663.550781 148.472656 703.234375 196.582031 703.234375 C 244.6875 703.234375 283.6875 663.550781 283.6875 614.601562 C 283.6875 565.652344 244.6875 525.96875 196.582031 525.96875 Z M 196.582031 525.96875 " clip-rule="nonzero"/></clipPath><clipPath id="b9486cf2c0"><path d="M 0.472656 0.96875 L 174.6875 0.96875 L 174.6875 178 L 0.472656 178 Z M 0.472656 0.96875 " clip-rule="nonzero"/></clipPath><clipPath id="85dfe9e69d"><path d="M 87.582031 0.96875 C 39.472656 0.96875 0.472656 40.652344 0.472656 89.601562 C 0.472656 138.550781 39.472656 178.234375 87.582031 178.234375 C 135.6875 178.234375 174.6875 138.550781 174.6875 89.601562 C 174.6875 40.652344 135.6875 0.96875 87.582031 0.96875 Z M 87.582031 0.96875 " clip-rule="nonzero"/></clipPath><clipPath id="c384c92190"><rect x="0" width="175" y="0" height="179"/></clipPath><clipPath id="4f387f0837"><path d="M 16.800781 455.628906 L 355.050781 455.628906 L 355.050781 658.128906 L 16.800781 658.128906 Z M 16.800781 455.628906 " clip-rule="nonzero"/></clipPath><clipPath id="277fbce0ea"><path d="M 0.800781 0.628906 L 338.851562 0.628906 L 338.851562 203.128906 L 0.800781 203.128906 Z M 0.800781 0.628906 " clip-rule="nonzero"/></clipPath><clipPath id="cd859cfdc5"><rect x="0" width="340" y="0" height="204"/></clipPath><clipPath id="e2dfd9231e"><path d="M 1015.230469 136.976562 L 1108.230469 136.976562 L 1108.230469 245.726562 L 1015.230469 245.726562 Z M 1015.230469 136.976562 " clip-rule="nonzero"/></clipPath><clipPath id="cd08ae5c6f"><path d="M 585.34375 136.976562 L 678.34375 136.976562 L 678.34375 245.726562 L 585.34375 245.726562 Z M 585.34375 136.976562 " clip-rule="nonzero"/></clipPath><clipPath id="5ccb0f6dde"><path d="M 155.644531 131.519531 L 248.644531 131.519531 L 248.644531 240.269531 L 155.644531 240.269531 Z M 155.644531 131.519531 " clip-rule="nonzero"/></clipPath></defs><g clip-path="url(#f2c608d588)"><path fill="#008eb0" d="M 1008.125 258.066406 C 1021.710938 267.0625 1037.9375 272.367188 1055.398438 272.367188 C 1102.742188 272.367188 1141.257812 233.851562 1141.257812 186.511719 C 1141.257812 139.167969 1102.742188 100.652344 1055.398438 100.652344 C 1008.058594 100.652344 969.542969 139.167969 969.542969 186.511719 C 969.542969 203.976562 974.847656 220.203125 983.847656 233.785156 L 840.757812 376.875 L 697.667969 233.785156 C 706.664062 220.203125 711.96875 203.976562 711.96875 186.511719 C 711.96875 139.167969 673.453125 100.652344 626.113281 100.652344 C 578.769531 100.652344 540.253906 139.167969 540.253906 186.511719 C 540.253906 203.976562 545.5625 220.203125 554.558594 233.785156 L 411.46875 376.875 L 268.378906 233.785156 C 277.378906 220.203125 282.683594 203.976562 282.683594 186.511719 C 282.683594 139.167969 244.167969 100.652344 196.824219 100.652344 C 149.484375 100.652344 110.96875 139.167969 110.96875 186.511719 C 110.96875 233.851562 149.484375 272.367188 196.824219 272.367188 C 198.9375 272.367188 200.914062 271.90625 202.972656 271.75 L 305.882812 482.460938 L 244.097656 544.246094 C 230.515625 535.246094 214.289062 529.941406 196.824219 529.941406 C 149.484375 529.941406 110.96875 568.457031 110.96875 615.796875 C 110.96875 663.140625 149.484375 701.65625 196.824219 701.65625 C 238.277344 701.65625 272.964844 672.105469 280.949219 632.96875 L 379.394531 632.96875 L 446.757812 770.890625 L 244.097656 973.53125 C 230.515625 964.535156 214.289062 959.226562 196.824219 959.226562 C 149.484375 959.226562 110.96875 997.742188 110.96875 1045.085938 C 110.96875 1092.425781 149.484375 1130.941406 196.824219 1130.941406 C 244.167969 1130.941406 282.683594 1092.425781 282.683594 1045.085938 C 282.683594 1042.972656 282.21875 1041 282.066406 1038.9375 L 520.730469 922.378906 L 556.378906 995.375 C 546.316406 1009.4375 540.253906 1026.523438 540.253906 1045.085938 C 540.253906 1092.425781 578.769531 1130.941406 626.113281 1130.941406 C 673.453125 1130.941406 711.96875 1092.425781 711.96875 1045.085938 C 711.96875 1003.632812 682.417969 968.945312 643.285156 960.960938 L 643.285156 862.519531 L 781.207031 795.15625 L 983.847656 997.796875 C 974.847656 1011.394531 969.542969 1027.621094 969.542969 1045.085938 C 969.542969 1092.425781 1008.058594 1130.941406 1055.398438 1130.941406 C 1102.742188 1130.941406 1141.257812 1092.425781 1141.257812 1045.085938 C 1141.257812 997.742188 1102.742188 959.226562 1055.398438 959.226562 C 1047.65625 959.226562 1040.304688 960.585938 1033.164062 962.507812 L 912.035156 731.257812 L 1005.6875 685.515625 C 1019.75 695.59375 1036.835938 701.65625 1055.398438 701.65625 C 1102.742188 701.65625 1141.257812 663.140625 1141.257812 615.796875 C 1141.257812 568.457031 1102.742188 529.941406 1055.398438 529.941406 C 1037.9375 529.941406 1021.710938 535.246094 1008.125 544.246094 L 865.035156 401.15625 Z M 1055.398438 134.996094 C 1083.800781 134.996094 1106.914062 158.109375 1106.914062 186.511719 C 1106.914062 214.914062 1083.800781 238.027344 1055.398438 238.027344 C 1027 238.027344 1003.886719 214.914062 1003.886719 186.511719 C 1003.886719 158.109375 1027 134.996094 1055.398438 134.996094 Z M 667.566406 598.625 L 756.960938 509.230469 L 803.785156 598.625 Z M 821.78125 632.96875 L 865.226562 715.925781 L 788.144531 753.566406 L 667.566406 632.96875 Z M 643.285156 574.347656 L 643.285156 292.203125 L 740.269531 477.363281 Z M 666.207031 261.960938 C 668.613281 260.675781 671.121094 259.558594 673.386719 258.066406 L 816.476562 401.15625 L 765.71875 451.914062 Z M 626.113281 134.996094 C 654.515625 134.996094 677.628906 158.109375 677.628906 186.511719 C 677.628906 214.914062 654.515625 238.027344 626.113281 238.027344 C 597.710938 238.027344 574.597656 214.914062 574.597656 186.511719 C 574.597656 158.109375 597.710938 134.996094 626.113281 134.996094 Z M 578.839844 258.066406 C 587.835938 264.039062 598.003906 268.402344 608.941406 270.632812 L 608.941406 574.347656 L 435.75 401.15625 Z M 584.660156 598.625 L 400.824219 598.625 L 347.488281 489.417969 L 411.46875 425.433594 Z M 145.3125 186.511719 C 145.3125 158.109375 168.425781 134.996094 196.824219 134.996094 C 225.226562 134.996094 248.339844 158.109375 248.339844 186.511719 C 248.339844 214.914062 225.226562 238.027344 196.824219 238.027344 C 168.425781 238.027344 145.3125 214.914062 145.3125 186.511719 Z M 236.507812 262.1875 C 239.050781 260.847656 241.695312 259.644531 244.097656 258.066406 L 387.1875 401.15625 L 331.554688 456.789062 Z M 196.824219 667.3125 C 168.425781 667.3125 145.3125 644.199219 145.3125 615.796875 C 145.3125 587.398438 168.425781 564.285156 196.824219 564.285156 C 225.226562 564.285156 248.339844 587.398438 248.339844 615.796875 C 248.339844 644.199219 225.226562 667.3125 196.824219 667.3125 Z M 280.949219 598.625 C 278.714844 587.6875 274.355469 577.523438 268.378906 568.523438 L 321.816406 515.085938 L 362.617188 598.625 Z M 417.597656 632.96875 L 584.660156 632.96875 L 472.410156 745.21875 Z M 608.941406 657.25 L 608.941406 841.089844 L 536.511719 876.460938 L 488.347656 777.84375 Z M 196.824219 1096.601562 C 168.425781 1096.601562 145.3125 1073.488281 145.3125 1045.085938 C 145.3125 1016.683594 168.425781 993.570312 196.824219 993.570312 C 225.226562 993.570312 248.339844 1016.683594 248.339844 1045.085938 C 248.339844 1073.488281 225.226562 1096.601562 196.824219 1096.601562 Z M 272.5 1005.402344 C 271.160156 1002.859375 269.960938 1000.214844 268.378906 997.8125 L 462.675781 803.515625 L 505.65625 891.519531 Z M 677.628906 1045.085938 C 677.628906 1073.488281 654.515625 1096.601562 626.113281 1096.601562 C 597.710938 1096.601562 574.597656 1073.488281 574.597656 1045.085938 C 574.597656 1016.683594 597.710938 993.570312 626.113281 993.570312 C 654.515625 993.570312 677.628906 1016.683594 677.628906 1045.085938 Z M 608.941406 960.960938 C 599.53125 962.886719 590.875 966.628906 582.859375 971.351562 L 551.589844 907.320312 L 608.941406 879.292969 Z M 643.285156 824.3125 L 643.285156 657.25 L 755.535156 769.5 Z M 1106.914062 1045.085938 C 1106.914062 1073.488281 1083.800781 1096.601562 1055.398438 1096.601562 C 1027 1096.601562 1003.886719 1073.488281 1003.886719 1045.085938 C 1003.886719 1016.683594 1027 993.570312 1055.398438 993.570312 C 1083.800781 993.570312 1106.914062 1016.683594 1106.914062 1045.085938 Z M 991.417969 956.824219 L 813.832031 779.238281 L 881.179688 746.351562 Z M 860.554688 632.96875 L 971.292969 632.96875 C 973.21875 642.378906 976.960938 651.035156 981.683594 659.054688 L 896.117188 700.847656 Z M 1055.398438 564.285156 C 1083.800781 564.285156 1106.914062 587.398438 1106.914062 615.796875 C 1106.914062 644.199219 1083.800781 667.3125 1055.398438 667.3125 C 1027 667.3125 1003.886719 644.199219 1003.886719 615.796875 C 1003.886719 587.398438 1027 564.285156 1055.398438 564.285156 Z M 983.847656 568.523438 C 977.871094 577.523438 973.507812 587.6875 971.277344 598.625 L 842.558594 598.625 L 782.40625 483.785156 L 840.757812 425.433594 Z M 983.847656 568.523438 " fill-opacity="1" fill-rule="nonzero"/></g><g clip-path="url(#be600536dd)"><path fill="#008eb0" d="M 222.316406 970.304688 L 222.316406 952.351562 C 222.316406 921.730469 246.609375 896.507812 276.878906 895.007812 L 268.027344 953.289062 C 267.785156 954.867188 268.230469 956.476562 269.25 957.707031 L 284.453125 976.09375 L 228.105469 976.09375 C 224.917969 976.09375 222.316406 973.496094 222.316406 970.304688 Z M 311.296875 953.289062 C 311.539062 954.867188 311.09375 956.476562 310.074219 957.707031 L 294.871094 976.09375 L 351.21875 976.09375 C 354.40625 976.09375 357.007812 973.496094 357.007812 970.304688 L 357.007812 952.351562 C 357.007812 921.730469 332.710938 896.507812 302.445312 895.007812 Z M 291.390625 896.976562 C 290.816406 897.003906 290.242188 897.015625 289.660156 897.015625 C 289.082031 897.015625 288.503906 897.003906 287.929688 896.976562 L 279.5 952.492188 L 289.660156 964.777344 L 299.824219 952.492188 Z M 289.660156 889.207031 C 306.40625 889.207031 320.0625 875.550781 320.0625 858.804688 C 320.0625 842.0625 306.40625 828.40625 289.660156 828.40625 C 272.917969 828.40625 259.261719 842.0625 259.261719 858.804688 C 259.261719 875.550781 272.917969 889.207031 289.660156 889.207031 Z M 342.527344 888.085938 L 342.527344 837.84375 C 342.527344 832.71875 346.71875 828.53125 351.839844 828.53125 L 415.042969 828.53125 C 420.164062 828.53125 424.351562 832.71875 424.351562 837.84375 L 424.351562 888.085938 C 424.351562 893.207031 420.160156 897.398438 415.042969 897.398438 L 375.765625 897.398438 L 361.347656 914.890625 L 361.347656 897.398438 L 351.839844 897.398438 C 346.71875 897.398438 342.527344 893.207031 342.527344 888.085938 Z M 361.203125 851.808594 C 361.203125 854.910156 363.714844 857.421875 366.816406 857.421875 L 400.066406 857.421875 C 403.167969 857.421875 405.679688 854.910156 405.679688 851.808594 C 405.679688 848.710938 403.167969 846.199219 400.066406 846.199219 L 366.816406 846.199219 C 363.714844 846.199219 361.203125 848.710938 361.203125 851.808594 Z M 361.203125 874.117188 C 361.203125 877.21875 363.714844 879.730469 366.816406 879.730469 L 400.066406 879.730469 C 403.167969 879.730469 405.679688 877.21875 405.679688 874.117188 C 405.679688 871.019531 403.167969 868.507812 400.066406 868.507812 L 366.816406 868.507812 C 363.714844 868.507812 361.203125 871.019531 361.203125 874.117188 Z M 203.304688 1046.878906 L 190.816406 1046.878906 C 170.960938 1046.878906 154.714844 1063.125 154.714844 1082.984375 L 154.714844 1094.273438 C 154.714844 1096.277344 156.347656 1097.914062 158.351562 1097.914062 L 235.769531 1097.914062 C 237.773438 1097.914062 239.410156 1096.277344 239.410156 1094.273438 L 239.410156 1082.984375 C 239.410156 1063.125 223.160156 1046.878906 203.304688 1046.878906 Z M 197.058594 1043.410156 C 208.09375 1043.410156 217.09375 1034.410156 217.09375 1023.375 C 217.09375 1012.339844 208.09375 1003.339844 197.058594 1003.339844 C 186.023438 1003.339844 177.023438 1012.339844 177.023438 1023.375 C 177.023438 1034.410156 186.023438 1043.410156 197.058594 1043.410156 Z M 295.90625 1046.878906 L 283.417969 1046.878906 C 263.558594 1046.878906 247.3125 1063.125 247.3125 1082.984375 L 247.3125 1094.273438 C 247.3125 1096.277344 248.949219 1097.914062 250.953125 1097.914062 L 328.367188 1097.914062 C 330.375 1097.914062 332.007812 1096.277344 332.007812 1094.273438 L 332.007812 1082.984375 C 332.007812 1063.125 315.761719 1046.878906 295.90625 1046.878906 Z M 269.625 1023.375 C 269.625 1034.410156 278.625 1043.410156 289.660156 1043.410156 C 300.695312 1043.410156 309.695312 1034.410156 309.695312 1023.375 C 309.695312 1012.339844 300.695312 1003.339844 289.660156 1003.339844 C 278.625 1003.339844 269.625 1012.339844 269.625 1023.375 Z M 388.503906 1046.878906 L 376.019531 1046.878906 C 356.160156 1046.878906 339.914062 1063.125 339.914062 1082.984375 L 339.914062 1094.273438 C 339.914062 1096.277344 341.550781 1097.914062 343.554688 1097.914062 L 420.96875 1097.914062 C 422.972656 1097.914062 424.609375 1096.277344 424.609375 1094.273438 L 424.609375 1082.984375 C 424.609375 1063.125 408.363281 1046.878906 388.503906 1046.878906 Z M 362.226562 1023.375 C 362.226562 1034.410156 371.226562 1043.410156 382.261719 1043.410156 C 393.296875 1043.410156 402.296875 1034.410156 402.296875 1023.375 C 402.296875 1012.339844 393.296875 1003.339844 382.261719 1003.339844 C 371.226562 1003.339844 362.226562 1012.339844 362.226562 1023.375 Z M 362.226562 1023.375 " fill-opacity="1" fill-rule="evenodd"/></g><g clip-path="url(#816d0489fd)"><path fill="#008eb0" d="M 653.054688 973.613281 L 653.054688 955.660156 C 653.054688 925.039062 677.351562 899.816406 707.617188 898.316406 L 698.765625 956.597656 C 698.527344 958.171875 698.972656 959.785156 699.988281 961.015625 L 715.191406 979.402344 L 658.84375 979.402344 C 655.65625 979.402344 653.054688 976.804688 653.054688 973.613281 Z M 742.039062 956.597656 C 742.277344 958.171875 741.832031 959.785156 740.816406 961.015625 L 725.609375 979.402344 L 781.957031 979.402344 C 785.148438 979.402344 787.746094 976.804688 787.746094 973.613281 L 787.746094 955.660156 C 787.746094 925.039062 763.453125 899.816406 733.183594 898.316406 Z M 722.132812 900.285156 C 721.558594 900.3125 720.980469 900.324219 720.402344 900.324219 C 719.820312 900.324219 719.246094 900.3125 718.671875 900.285156 L 710.238281 955.796875 L 720.402344 968.085938 L 730.5625 955.796875 Z M 720.402344 892.515625 C 737.144531 892.515625 750.804688 878.859375 750.804688 862.113281 C 750.804688 845.371094 737.148438 831.714844 720.402344 831.714844 C 703.65625 831.714844 690 845.371094 690 862.113281 C 690 878.859375 703.65625 892.515625 720.402344 892.515625 Z M 773.269531 891.394531 L 773.269531 841.152344 C 773.269531 836.027344 777.460938 831.839844 782.582031 831.839844 L 845.78125 831.839844 C 850.902344 831.839844 855.09375 836.027344 855.09375 841.152344 L 855.09375 891.394531 C 855.09375 896.515625 850.902344 900.707031 845.78125 900.707031 L 806.503906 900.707031 L 792.085938 918.199219 L 792.085938 900.707031 L 782.582031 900.707031 C 777.460938 900.707031 773.269531 896.515625 773.269531 891.394531 Z M 791.945312 855.117188 C 791.945312 858.21875 794.457031 860.730469 797.554688 860.730469 L 830.808594 860.730469 C 833.90625 860.730469 836.417969 858.21875 836.417969 855.117188 C 836.417969 852.019531 833.90625 849.507812 830.808594 849.507812 L 797.554688 849.507812 C 794.457031 849.507812 791.945312 852.019531 791.945312 855.117188 Z M 791.945312 877.425781 C 791.945312 880.527344 794.457031 883.039062 797.554688 883.039062 L 830.808594 883.039062 C 833.90625 883.039062 836.417969 880.527344 836.417969 877.425781 C 836.417969 874.328125 833.90625 871.816406 830.808594 871.816406 L 797.554688 871.816406 C 794.457031 871.816406 791.945312 874.328125 791.945312 877.425781 Z M 634.042969 1050.1875 L 621.558594 1050.1875 C 601.699219 1050.1875 585.453125 1066.433594 585.453125 1086.292969 L 585.453125 1097.582031 C 585.453125 1099.585938 587.089844 1101.222656 589.09375 1101.222656 L 666.507812 1101.222656 C 668.515625 1101.222656 670.148438 1099.585938 670.148438 1097.582031 L 670.148438 1086.292969 C 670.148438 1066.433594 653.902344 1050.1875 634.042969 1050.1875 Z M 627.800781 1046.71875 C 638.835938 1046.71875 647.835938 1037.71875 647.835938 1026.683594 C 647.835938 1015.648438 638.835938 1006.648438 627.800781 1006.648438 C 616.765625 1006.648438 607.765625 1015.648438 607.765625 1026.683594 C 607.765625 1037.71875 616.765625 1046.71875 627.800781 1046.71875 Z M 726.644531 1050.1875 L 714.15625 1050.1875 C 694.300781 1050.1875 678.054688 1066.433594 678.054688 1086.292969 L 678.054688 1097.582031 C 678.054688 1099.585938 679.6875 1101.222656 681.695312 1101.222656 L 759.109375 1101.222656 C 761.113281 1101.222656 762.75 1099.585938 762.75 1097.582031 L 762.75 1086.292969 C 762.75 1066.433594 746.503906 1050.1875 726.644531 1050.1875 Z M 700.367188 1026.683594 C 700.367188 1037.71875 709.367188 1046.71875 720.402344 1046.71875 C 731.4375 1046.71875 740.4375 1037.71875 740.4375 1026.683594 C 740.4375 1015.648438 731.4375 1006.648438 720.402344 1006.648438 C 709.367188 1006.648438 700.367188 1015.648438 700.367188 1026.683594 Z M 819.246094 1050.1875 L 806.757812 1050.1875 C 786.902344 1050.1875 770.652344 1066.433594 770.652344 1086.292969 L 770.652344 1097.582031 C 770.652344 1099.585938 772.289062 1101.222656 774.292969 1101.222656 L 851.710938 1101.222656 C 853.714844 1101.222656 855.351562 1099.585938 855.351562 1097.582031 L 855.351562 1086.292969 C 855.351562 1066.433594 839.101562 1050.1875 819.246094 1050.1875 Z M 792.964844 1026.683594 C 792.964844 1037.71875 801.964844 1046.71875 813 1046.71875 C 824.035156 1046.71875 833.035156 1037.71875 833.035156 1026.683594 C 833.035156 1015.648438 824.035156 1006.648438 813 1006.648438 C 801.964844 1006.648438 792.964844 1015.648438 792.964844 1026.683594 Z M 792.964844 1026.683594 " fill-opacity="1" fill-rule="evenodd"/></g><g clip-path="url(#b7200badb1)"><path fill="#008eb0" d="M 1083.703125 973.613281 L 1083.703125 955.660156 C 1083.703125 925.039062 1108 899.816406 1138.265625 898.316406 L 1129.414062 956.597656 C 1129.175781 958.171875 1129.617188 959.785156 1130.636719 961.015625 L 1145.839844 979.402344 L 1089.492188 979.402344 C 1086.304688 979.402344 1083.703125 976.804688 1083.703125 973.613281 Z M 1172.6875 956.597656 C 1172.925781 958.171875 1172.480469 959.785156 1171.460938 961.015625 L 1156.257812 979.402344 L 1212.605469 979.402344 C 1215.792969 979.402344 1218.394531 976.804688 1218.394531 973.613281 L 1218.394531 955.660156 C 1218.394531 925.039062 1194.097656 899.816406 1163.832031 898.316406 L 1172.683594 956.597656 Z M 1152.777344 900.285156 C 1152.207031 900.3125 1151.628906 900.324219 1151.046875 900.324219 C 1150.46875 900.324219 1149.894531 900.3125 1149.320312 900.285156 L 1140.886719 955.796875 L 1151.046875 968.085938 L 1161.210938 955.796875 Z M 1151.050781 892.515625 C 1167.792969 892.515625 1181.449219 878.859375 1181.449219 862.113281 C 1181.449219 845.371094 1167.792969 831.714844 1151.050781 831.714844 C 1134.304688 831.714844 1120.648438 845.371094 1120.648438 862.113281 C 1120.648438 878.859375 1134.304688 892.515625 1151.050781 892.515625 Z M 1203.917969 891.394531 L 1203.917969 841.152344 C 1203.917969 836.027344 1208.109375 831.839844 1213.230469 831.839844 L 1276.429688 831.839844 C 1281.550781 831.839844 1285.742188 836.027344 1285.742188 841.152344 L 1285.742188 891.394531 C 1285.742188 896.515625 1281.550781 900.707031 1276.429688 900.707031 L 1237.152344 900.707031 L 1222.734375 918.199219 L 1222.734375 900.707031 L 1213.230469 900.707031 C 1208.109375 900.707031 1203.917969 896.515625 1203.917969 891.394531 Z M 1222.589844 855.117188 C 1222.589844 858.21875 1225.105469 860.730469 1228.203125 860.730469 L 1261.453125 860.730469 C 1264.554688 860.730469 1267.066406 858.21875 1267.066406 855.117188 C 1267.066406 852.019531 1264.554688 849.507812 1261.453125 849.507812 L 1228.203125 849.507812 C 1225.105469 849.507812 1222.589844 852.019531 1222.589844 855.117188 Z M 1222.589844 877.425781 C 1222.589844 880.527344 1225.105469 883.039062 1228.203125 883.039062 L 1261.453125 883.039062 C 1264.554688 883.039062 1267.066406 880.527344 1267.066406 877.425781 C 1267.066406 874.328125 1264.554688 871.816406 1261.453125 871.816406 L 1228.203125 871.816406 C 1225.105469 871.816406 1222.589844 874.328125 1222.589844 877.425781 Z M 1064.691406 1050.1875 L 1052.203125 1050.1875 C 1032.347656 1050.1875 1016.101562 1066.433594 1016.101562 1086.292969 L 1016.101562 1097.582031 C 1016.101562 1099.585938 1017.734375 1101.222656 1019.742188 1101.222656 L 1097.15625 1101.222656 C 1099.160156 1101.222656 1100.796875 1099.585938 1100.796875 1097.582031 L 1100.796875 1086.292969 C 1100.796875 1066.433594 1084.550781 1050.1875 1064.691406 1050.1875 Z M 1058.449219 1046.71875 C 1069.484375 1046.71875 1078.484375 1037.71875 1078.484375 1026.683594 C 1078.484375 1015.648438 1069.484375 1006.648438 1058.449219 1006.648438 C 1047.414062 1006.648438 1038.414062 1015.648438 1038.414062 1026.683594 C 1038.414062 1037.71875 1047.414062 1046.71875 1058.449219 1046.71875 Z M 1157.292969 1050.1875 L 1144.804688 1050.1875 C 1124.949219 1050.1875 1108.699219 1066.433594 1108.699219 1086.292969 L 1108.699219 1097.582031 C 1108.699219 1099.585938 1110.335938 1101.222656 1112.339844 1101.222656 L 1189.757812 1101.222656 C 1191.761719 1101.222656 1193.394531 1099.585938 1193.394531 1097.582031 L 1193.394531 1086.292969 C 1193.394531 1066.433594 1177.148438 1050.1875 1157.292969 1050.1875 Z M 1131.011719 1026.683594 C 1131.011719 1037.71875 1140.011719 1046.71875 1151.046875 1046.71875 C 1162.082031 1046.71875 1171.082031 1037.71875 1171.082031 1026.683594 C 1171.082031 1015.648438 1162.082031 1006.648438 1151.046875 1006.648438 C 1140.015625 1006.648438 1131.011719 1015.648438 1131.011719 1026.683594 Z M 1249.894531 1050.1875 L 1237.40625 1050.1875 C 1217.546875 1050.1875 1201.300781 1066.433594 1201.300781 1086.292969 L 1201.300781 1097.582031 C 1201.300781 1099.585938 1202.9375 1101.222656 1204.941406 1101.222656 L 1282.355469 1101.222656 C 1284.363281 1101.222656 1285.996094 1099.585938 1285.996094 1097.582031 L 1285.996094 1086.292969 C 1285.996094 1066.433594 1269.75 1050.1875 1249.894531 1050.1875 Z M 1223.613281 1026.683594 C 1223.613281 1037.71875 1232.613281 1046.71875 1243.648438 1046.71875 C 1254.683594 1046.71875 1263.683594 1037.71875 1263.683594 1026.683594 C 1263.683594 1015.648438 1254.683594 1006.648438 1243.648438 1006.648438 C 1232.613281 1006.648438 1223.613281 1015.648438 1223.613281 1026.683594 Z M 1223.613281 1026.683594 " fill-opacity="1" fill-rule="evenodd"/></g><g clip-path="url(#b26057086f)"><path fill="#008eb0" d="M 1082.941406 542.746094 L 1082.941406 524.789062 C 1082.941406 494.167969 1107.234375 468.945312 1137.503906 467.445312 L 1128.652344 525.726562 C 1128.410156 527.304688 1128.855469 528.914062 1129.875 530.144531 L 1145.078125 548.53125 L 1088.730469 548.53125 C 1085.542969 548.53125 1082.941406 545.933594 1082.941406 542.746094 Z M 1171.921875 525.726562 C 1172.160156 527.304688 1171.71875 528.914062 1170.699219 530.144531 L 1155.496094 548.53125 L 1211.84375 548.53125 C 1215.03125 548.53125 1217.632812 545.933594 1217.632812 542.746094 L 1217.632812 524.789062 C 1217.632812 494.167969 1193.335938 468.945312 1163.070312 467.445312 Z M 1152.015625 469.414062 C 1151.441406 469.441406 1150.867188 469.457031 1150.285156 469.457031 C 1149.707031 469.457031 1149.128906 469.441406 1148.554688 469.414062 L 1140.125 524.929688 L 1150.285156 537.21875 L 1160.449219 524.929688 Z M 1150.285156 461.644531 C 1167.03125 461.644531 1180.6875 447.988281 1180.6875 431.242188 C 1180.6875 414.5 1167.03125 400.84375 1150.285156 400.84375 C 1133.542969 400.84375 1119.886719 414.5 1119.886719 431.242188 C 1119.886719 447.988281 1133.542969 461.644531 1150.285156 461.644531 Z M 1203.152344 460.527344 L 1203.152344 410.28125 C 1203.152344 405.160156 1207.34375 400.96875 1212.464844 400.96875 L 1275.667969 400.96875 C 1280.789062 400.96875 1284.976562 405.160156 1284.976562 410.28125 L 1284.976562 460.527344 C 1284.976562 465.648438 1280.785156 469.835938 1275.667969 469.835938 L 1236.386719 469.835938 L 1221.972656 487.332031 L 1221.972656 469.835938 L 1212.464844 469.835938 C 1207.34375 469.835938 1203.152344 465.648438 1203.152344 460.527344 Z M 1221.828125 424.25 C 1221.828125 427.347656 1224.339844 429.859375 1227.441406 429.859375 L 1260.691406 429.859375 C 1263.792969 429.859375 1266.304688 427.347656 1266.304688 424.25 C 1266.304688 421.148438 1263.792969 418.636719 1260.691406 418.636719 L 1227.441406 418.636719 C 1224.339844 418.636719 1221.828125 421.148438 1221.828125 424.25 Z M 1221.828125 446.558594 C 1221.828125 449.65625 1224.339844 452.167969 1227.441406 452.167969 L 1260.691406 452.167969 C 1263.792969 452.167969 1266.304688 449.65625 1266.304688 446.558594 C 1266.304688 443.457031 1263.792969 440.945312 1260.691406 440.945312 L 1227.441406 440.945312 C 1224.339844 440.945312 1221.828125 443.457031 1221.828125 446.558594 Z M 1063.929688 619.316406 L 1051.441406 619.316406 C 1031.585938 619.316406 1015.335938 635.5625 1015.335938 655.421875 L 1015.335938 666.710938 C 1015.335938 668.714844 1016.972656 670.351562 1018.976562 670.351562 L 1096.394531 670.351562 C 1098.398438 670.351562 1100.03125 668.714844 1100.03125 666.710938 L 1100.03125 655.421875 C 1100.03125 635.5625 1083.785156 619.316406 1063.929688 619.316406 Z M 1057.683594 615.851562 C 1068.71875 615.851562 1077.71875 606.851562 1077.71875 595.816406 C 1077.71875 584.777344 1068.71875 575.777344 1057.683594 575.777344 C 1046.648438 575.777344 1037.648438 584.777344 1037.648438 595.816406 C 1037.648438 606.851562 1046.648438 615.851562 1057.683594 615.851562 Z M 1156.527344 619.316406 L 1144.042969 619.316406 C 1124.183594 619.316406 1107.9375 635.5625 1107.9375 655.421875 L 1107.9375 666.710938 C 1107.9375 668.714844 1109.574219 670.351562 1111.578125 670.351562 L 1188.992188 670.351562 C 1191 670.351562 1192.632812 668.714844 1192.632812 666.710938 L 1192.632812 655.421875 C 1192.632812 635.5625 1176.386719 619.316406 1156.527344 619.316406 Z M 1130.25 595.816406 C 1130.25 606.851562 1139.25 615.851562 1150.285156 615.851562 C 1161.320312 615.851562 1170.320312 606.851562 1170.320312 595.816406 C 1170.320312 584.78125 1161.320312 575.777344 1150.285156 575.777344 C 1139.25 575.777344 1130.25 584.78125 1130.25 595.816406 Z M 1249.128906 619.316406 L 1236.644531 619.316406 C 1216.785156 619.316406 1200.539062 635.5625 1200.539062 655.421875 L 1200.539062 666.710938 C 1200.539062 668.714844 1202.175781 670.351562 1204.179688 670.351562 L 1281.59375 670.351562 C 1283.597656 670.351562 1285.234375 668.714844 1285.234375 666.710938 L 1285.234375 655.421875 C 1285.234375 635.5625 1268.988281 619.316406 1249.128906 619.316406 Z M 1222.851562 595.816406 C 1222.851562 606.851562 1231.851562 615.851562 1242.886719 615.851562 C 1253.921875 615.851562 1262.921875 606.851562 1262.921875 595.816406 C 1262.921875 584.78125 1253.921875 575.777344 1242.886719 575.777344 C 1231.851562 575.777344 1222.851562 584.78125 1222.851562 595.816406 Z M 1222.851562 595.816406 " fill-opacity="1" fill-rule="evenodd"/></g><g clip-path="url(#66e196dc96)"><g clip-path="url(#a4ea29cd65)"><g transform="matrix(1, 0, 0, 1, 109, 525)"><g clip-path="url(#c384c92190)"><g clip-path="url(#b9486cf2c0)"><g clip-path="url(#85dfe9e69d)"><path fill="#ffffff" d="M 0.472656 0.96875 L 174.6875 0.96875 L 174.6875 177.90625 L 0.472656 177.90625 Z M 0.472656 0.96875 " fill-opacity="1" fill-rule="nonzero"/></g></g></g></g></g></g><g clip-path="url(#4f387f0837)"><g transform="matrix(1, 0, 0, 1, 16, 455)"><g clip-path="url(#cd859cfdc5)"><g clip-path="url(#277fbce0ea)"><path fill="#008eb0" d="M 254.09375 178.246094 L 254.09375 155.773438 C 254.09375 117.441406 223.679688 85.867188 185.792969 83.988281 L 196.875 156.945312 C 197.175781 158.917969 196.617188 160.933594 195.34375 162.476562 L 176.3125 185.496094 L 246.847656 185.496094 C 250.835938 185.496094 254.09375 182.238281 254.09375 178.246094 Z M 142.707031 156.945312 C 142.40625 158.917969 142.964844 160.933594 144.238281 162.476562 L 163.269531 185.496094 L 92.738281 185.496094 C 88.746094 185.496094 85.488281 182.238281 85.488281 178.246094 L 85.488281 155.773438 C 85.488281 117.441406 115.902344 85.867188 153.789062 83.988281 Z M 167.625 86.457031 C 168.34375 86.488281 169.066406 86.507812 169.792969 86.507812 C 170.519531 86.507812 171.238281 86.488281 171.957031 86.457031 L 182.511719 155.945312 L 169.792969 171.328125 L 157.070312 155.945312 Z M 169.792969 76.730469 C 148.832031 76.730469 131.734375 59.636719 131.734375 38.675781 C 131.734375 17.714844 148.832031 0.621094 169.792969 0.621094 C 190.753906 0.621094 207.847656 17.714844 207.847656 38.675781 C 207.847656 59.636719 190.75 76.730469 169.792969 76.730469 Z M 103.613281 75.328125 L 103.613281 12.433594 C 103.613281 6.023438 98.367188 0.777344 91.957031 0.777344 L 12.84375 0.777344 C 6.433594 0.777344 1.1875 6.023438 1.1875 12.433594 L 1.1875 75.328125 C 1.1875 81.738281 6.433594 86.984375 12.84375 86.984375 L 62.011719 86.984375 L 80.058594 108.882812 L 80.058594 86.984375 L 91.957031 86.984375 C 98.367188 86.984375 103.613281 81.738281 103.613281 75.328125 Z M 80.238281 29.917969 C 80.238281 33.796875 77.089844 36.945312 73.210938 36.945312 L 31.589844 36.945312 C 27.707031 36.945312 24.5625 33.796875 24.5625 29.917969 C 24.5625 26.039062 27.707031 22.894531 31.589844 22.894531 L 73.210938 22.894531 C 77.089844 22.894531 80.238281 26.039062 80.238281 29.917969 Z M 80.238281 57.84375 C 80.238281 61.722656 77.089844 64.867188 73.210938 64.867188 L 31.589844 64.867188 C 27.707031 64.867188 24.5625 61.722656 24.5625 57.84375 C 24.5625 53.964844 27.707031 50.816406 31.589844 50.816406 L 73.210938 50.816406 C 77.089844 50.816406 80.238281 53.964844 80.238281 57.84375 Z M 277.890625 274.101562 L 293.523438 274.101562 C 318.378906 274.101562 338.714844 294.4375 338.714844 319.292969 L 338.714844 333.425781 C 338.714844 335.9375 336.667969 337.984375 334.160156 337.984375 L 237.253906 337.984375 C 234.742188 337.984375 232.695312 335.9375 232.695312 333.425781 L 232.695312 319.292969 C 232.695312 294.4375 253.035156 274.101562 277.890625 274.101562 Z M 285.707031 269.757812 C 271.894531 269.757812 260.628906 258.492188 260.628906 244.679688 C 260.628906 230.867188 271.894531 219.601562 285.707031 219.601562 C 299.519531 219.601562 310.785156 230.867188 310.785156 244.679688 C 310.785156 258.492188 299.519531 269.757812 285.707031 269.757812 Z M 161.976562 274.101562 L 177.609375 274.101562 C 202.464844 274.101562 222.800781 294.4375 222.800781 319.292969 L 222.800781 333.425781 C 222.800781 335.9375 220.753906 337.984375 218.246094 337.984375 L 121.339844 337.984375 C 118.828125 337.984375 116.78125 335.9375 116.78125 333.425781 L 116.78125 319.292969 C 116.78125 294.4375 137.121094 274.101562 161.976562 274.101562 Z M 194.871094 244.679688 C 194.871094 258.492188 183.605469 269.757812 169.792969 269.757812 C 155.976562 269.757812 144.714844 258.492188 144.714844 244.679688 C 144.714844 230.867188 155.980469 219.601562 169.792969 219.601562 C 183.605469 219.601562 194.871094 230.867188 194.871094 244.679688 Z M 46.0625 274.101562 L 61.691406 274.101562 C 86.550781 274.101562 106.886719 294.4375 106.886719 319.292969 L 106.886719 333.425781 C 106.886719 335.9375 104.839844 337.984375 102.332031 337.984375 L 5.425781 337.984375 C 2.914062 337.984375 0.867188 335.9375 0.867188 333.425781 L 0.867188 319.292969 C 0.867188 294.4375 21.203125 274.101562 46.0625 274.101562 Z M 78.957031 244.679688 C 78.957031 258.492188 67.691406 269.757812 53.878906 269.757812 C 40.0625 269.757812 28.796875 258.492188 28.796875 244.679688 C 28.796875 230.867188 40.0625 219.601562 53.878906 219.601562 C 67.691406 219.601562 78.957031 230.867188 78.957031 244.679688 Z M 78.957031 244.679688 " fill-opacity="1" fill-rule="evenodd"/></g></g></g></g><g clip-path="url(#e2dfd9231e)"><path fill="#008eb0" d="M 1082.941406 118.464844 L 1082.941406 100.511719 C 1082.941406 69.890625 1107.234375 44.667969 1137.503906 43.167969 L 1128.652344 101.449219 C 1128.410156 103.027344 1128.855469 104.636719 1129.875 105.867188 L 1145.078125 124.253906 L 1088.730469 124.253906 C 1085.542969 124.253906 1082.941406 121.65625 1082.941406 118.464844 Z M 1171.921875 101.449219 C 1172.160156 103.027344 1171.71875 104.636719 1170.699219 105.867188 L 1155.496094 124.253906 L 1211.84375 124.253906 C 1215.03125 124.253906 1217.632812 121.65625 1217.632812 118.464844 L 1217.632812 100.511719 C 1217.632812 69.890625 1193.335938 44.667969 1163.070312 43.167969 Z M 1152.015625 45.136719 C 1151.441406 45.164062 1150.867188 45.175781 1150.285156 45.175781 C 1149.707031 45.175781 1149.128906 45.164062 1148.554688 45.136719 L 1140.125 100.652344 L 1150.285156 112.9375 L 1160.449219 100.652344 Z M 1150.285156 37.367188 C 1167.03125 37.367188 1180.6875 23.710938 1180.6875 6.964844 C 1180.6875 -9.777344 1167.03125 -23.433594 1150.285156 -23.433594 C 1133.542969 -23.433594 1119.886719 -9.777344 1119.886719 6.964844 C 1119.886719 23.710938 1133.542969 37.367188 1150.285156 37.367188 Z M 1203.152344 36.246094 L 1203.152344 -13.996094 C 1203.152344 -19.121094 1207.34375 -23.308594 1212.464844 -23.308594 L 1275.667969 -23.308594 C 1280.789062 -23.308594 1284.976562 -19.121094 1284.976562 -13.996094 L 1284.976562 36.246094 C 1284.976562 41.367188 1280.785156 45.558594 1275.667969 45.558594 L 1236.386719 45.558594 L 1221.972656 63.050781 L 1221.972656 45.558594 L 1212.464844 45.558594 C 1207.34375 45.558594 1203.152344 41.367188 1203.152344 36.246094 Z M 1221.828125 -0.03125 C 1221.828125 3.070312 1224.339844 5.582031 1227.441406 5.582031 L 1260.691406 5.582031 C 1263.792969 5.582031 1266.304688 3.070312 1266.304688 -0.03125 C 1266.304688 -3.128906 1263.792969 -5.640625 1260.691406 -5.640625 L 1227.441406 -5.640625 C 1224.339844 -5.640625 1221.828125 -3.128906 1221.828125 -0.03125 Z M 1221.828125 22.277344 C 1221.828125 25.378906 1224.339844 27.890625 1227.441406 27.890625 L 1260.691406 27.890625 C 1263.792969 27.890625 1266.304688 25.378906 1266.304688 22.277344 C 1266.304688 19.179688 1263.792969 16.667969 1260.691406 16.667969 L 1227.441406 16.667969 C 1224.339844 16.667969 1221.828125 19.179688 1221.828125 22.277344 Z M 1063.929688 195.039062 L 1051.441406 195.039062 C 1031.585938 195.039062 1015.335938 211.285156 1015.335938 231.144531 L 1015.335938 242.433594 C 1015.335938 244.4375 1016.972656 246.074219 1018.976562 246.074219 L 1096.394531 246.074219 C 1098.398438 246.074219 1100.03125 244.4375 1100.03125 242.433594 L 1100.03125 231.144531 C 1100.03125 211.285156 1083.785156 195.039062 1063.929688 195.039062 Z M 1057.683594 191.570312 C 1068.71875 191.570312 1077.71875 182.570312 1077.71875 171.535156 C 1077.71875 160.5 1068.71875 151.5 1057.683594 151.5 C 1046.648438 151.5 1037.648438 160.5 1037.648438 171.535156 C 1037.648438 182.570312 1046.648438 191.570312 1057.683594 191.570312 Z M 1156.527344 195.039062 L 1144.042969 195.039062 C 1124.183594 195.039062 1107.9375 211.285156 1107.9375 231.144531 L 1107.9375 242.433594 C 1107.9375 244.4375 1109.574219 246.074219 1111.578125 246.074219 L 1188.992188 246.074219 C 1191 246.074219 1192.632812 244.4375 1192.632812 242.433594 L 1192.632812 231.144531 C 1192.632812 211.285156 1176.386719 195.039062 1156.527344 195.039062 Z M 1130.25 171.535156 C 1130.25 182.570312 1139.25 191.570312 1150.285156 191.570312 C 1161.320312 191.570312 1170.320312 182.570312 1170.320312 171.535156 C 1170.320312 160.5 1161.320312 151.5 1150.285156 151.5 C 1139.25 151.5 1130.25 160.5 1130.25 171.535156 Z M 1249.128906 195.039062 L 1236.644531 195.039062 C 1216.785156 195.039062 1200.539062 211.285156 1200.539062 231.144531 L 1200.539062 242.433594 C 1200.539062 244.4375 1202.175781 246.074219 1204.179688 246.074219 L 1281.59375 246.074219 C 1283.597656 246.074219 1285.234375 244.4375 1285.234375 242.433594 L 1285.234375 231.144531 C 1285.234375 211.285156 1268.988281 195.039062 1249.128906 195.039062 Z M 1222.851562 171.535156 C 1222.851562 182.570312 1231.851562 191.570312 1242.886719 191.570312 C 1253.921875 191.570312 1262.921875 182.570312 1262.921875 171.535156 C 1262.921875 160.5 1253.921875 151.5 1242.886719 151.5 C 1231.851562 151.5 1222.851562 160.5 1222.851562 171.535156 Z M 1222.851562 171.535156 " fill-opacity="1" fill-rule="evenodd"/></g><g clip-path="url(#cd08ae5c6f)"><path fill="#008eb0" d="M 653.054688 118.464844 L 653.054688 100.511719 C 653.054688 69.890625 677.351562 44.667969 707.617188 43.167969 L 698.765625 101.449219 C 698.527344 103.027344 698.972656 104.636719 699.988281 105.867188 L 715.191406 124.253906 L 658.84375 124.253906 C 655.65625 124.253906 653.054688 121.65625 653.054688 118.464844 Z M 742.039062 101.449219 C 742.277344 103.027344 741.832031 104.636719 740.816406 105.867188 L 725.609375 124.253906 L 781.957031 124.253906 C 785.148438 124.253906 787.746094 121.65625 787.746094 118.464844 L 787.746094 100.511719 C 787.746094 69.890625 763.453125 44.667969 733.183594 43.167969 Z M 722.132812 45.136719 C 721.558594 45.164062 720.980469 45.175781 720.402344 45.175781 C 719.820312 45.175781 719.246094 45.164062 718.671875 45.136719 L 710.238281 100.652344 L 720.402344 112.9375 L 730.5625 100.652344 Z M 720.402344 37.367188 C 737.144531 37.367188 750.804688 23.710938 750.804688 6.964844 C 750.804688 -9.777344 737.148438 -23.433594 720.402344 -23.433594 C 703.65625 -23.433594 690 -9.777344 690 6.964844 C 690 23.710938 703.65625 37.367188 720.402344 37.367188 Z M 773.269531 36.246094 L 773.269531 -13.996094 C 773.269531 -19.121094 777.460938 -23.308594 782.582031 -23.308594 L 845.78125 -23.308594 C 850.902344 -23.308594 855.09375 -19.121094 855.09375 -13.996094 L 855.09375 36.246094 C 855.09375 41.367188 850.902344 45.558594 845.78125 45.558594 L 806.503906 45.558594 L 792.085938 63.050781 L 792.085938 45.558594 L 782.582031 45.558594 C 777.460938 45.558594 773.269531 41.367188 773.269531 36.246094 Z M 791.945312 -0.03125 C 791.945312 3.070312 794.457031 5.582031 797.554688 5.582031 L 830.808594 5.582031 C 833.90625 5.582031 836.417969 3.070312 836.417969 -0.03125 C 836.417969 -3.128906 833.90625 -5.640625 830.808594 -5.640625 L 797.554688 -5.640625 C 794.457031 -5.640625 791.945312 -3.128906 791.945312 -0.03125 Z M 791.945312 22.277344 C 791.945312 25.378906 794.457031 27.890625 797.554688 27.890625 L 830.808594 27.890625 C 833.90625 27.890625 836.417969 25.378906 836.417969 22.277344 C 836.417969 19.179688 833.90625 16.667969 830.808594 16.667969 L 797.554688 16.667969 C 794.457031 16.667969 791.945312 19.179688 791.945312 22.277344 Z M 634.042969 195.039062 L 621.558594 195.039062 C 601.699219 195.039062 585.453125 211.285156 585.453125 231.144531 L 585.453125 242.433594 C 585.453125 244.4375 587.089844 246.074219 589.09375 246.074219 L 666.507812 246.074219 C 668.515625 246.074219 670.148438 244.4375 670.148438 242.433594 L 670.148438 231.144531 C 670.148438 211.285156 653.902344 195.039062 634.042969 195.039062 Z M 627.800781 191.570312 C 638.835938 191.570312 647.835938 182.570312 647.835938 171.535156 C 647.835938 160.5 638.835938 151.5 627.800781 151.5 C 616.765625 151.5 607.765625 160.5 607.765625 171.535156 C 607.765625 182.570312 616.765625 191.570312 627.800781 191.570312 Z M 726.644531 195.039062 L 714.15625 195.039062 C 694.300781 195.039062 678.054688 211.285156 678.054688 231.144531 L 678.054688 242.433594 C 678.054688 244.4375 679.6875 246.074219 681.695312 246.074219 L 759.109375 246.074219 C 761.113281 246.074219 762.75 244.4375 762.75 242.433594 L 762.75 231.144531 C 762.75 211.285156 746.503906 195.039062 726.644531 195.039062 Z M 700.367188 171.535156 C 700.367188 182.570312 709.367188 191.570312 720.402344 191.570312 C 731.4375 191.570312 740.4375 182.570312 740.4375 171.535156 C 740.4375 160.5 731.4375 151.5 720.402344 151.5 C 709.367188 151.5 700.367188 160.5 700.367188 171.535156 Z M 819.246094 195.039062 L 806.757812 195.039062 C 786.902344 195.039062 770.652344 211.285156 770.652344 231.144531 L 770.652344 242.433594 C 770.652344 244.4375 772.289062 246.074219 774.292969 246.074219 L 851.710938 246.074219 C 853.714844 246.074219 855.351562 244.4375 855.351562 242.433594 L 855.351562 231.144531 C 855.351562 211.285156 839.101562 195.039062 819.246094 195.039062 Z M 792.964844 171.535156 C 792.964844 182.570312 801.964844 191.570312 813 191.570312 C 824.035156 191.570312 833.035156 182.570312 833.035156 171.535156 C 833.035156 160.5 824.035156 151.5 813 151.5 C 801.964844 151.5 792.964844 160.5 792.964844 171.535156 Z M 792.964844 171.535156 " fill-opacity="1" fill-rule="evenodd"/></g><g clip-path="url(#5ccb0f6dde)"><path fill="#008eb0" d="M 223.359375 113.007812 L 223.359375 95.054688 C 223.359375 64.433594 247.652344 39.210938 277.921875 37.710938 L 269.066406 95.992188 C 268.828125 97.570312 269.273438 99.179688 270.289062 100.410156 L 285.496094 118.796875 L 229.148438 118.796875 C 225.957031 118.796875 223.359375 116.199219 223.359375 113.007812 Z M 312.339844 95.992188 C 312.578125 97.570312 312.136719 99.179688 311.117188 100.410156 L 295.910156 118.796875 L 352.261719 118.796875 C 355.449219 118.796875 358.046875 116.199219 358.046875 113.007812 L 358.046875 95.054688 C 358.046875 64.433594 333.753906 39.210938 303.488281 37.710938 Z M 292.433594 39.679688 C 291.859375 39.707031 291.28125 39.722656 290.703125 39.722656 C 290.121094 39.722656 289.546875 39.707031 288.972656 39.679688 L 280.542969 95.195312 L 290.703125 107.480469 L 300.867188 95.195312 Z M 290.703125 31.910156 C 307.449219 31.910156 321.105469 18.253906 321.105469 1.507812 C 321.105469 -15.234375 307.449219 -28.890625 290.703125 -28.890625 C 273.957031 -28.890625 260.300781 -15.234375 260.300781 1.507812 C 260.300781 18.253906 273.960938 31.910156 290.703125 31.910156 Z M 343.570312 30.789062 L 343.570312 -19.453125 C 343.570312 -24.574219 347.761719 -28.765625 352.882812 -28.765625 L 416.082031 -28.765625 C 421.203125 -28.765625 425.394531 -24.574219 425.394531 -19.453125 L 425.394531 30.789062 C 425.394531 35.910156 421.203125 40.101562 416.082031 40.101562 L 376.804688 40.101562 L 362.390625 57.597656 L 362.390625 40.101562 L 352.882812 40.101562 C 347.761719 40.101562 343.570312 35.910156 343.570312 30.789062 Z M 362.246094 -5.484375 C 362.246094 -2.386719 364.757812 0.125 367.855469 0.125 L 401.109375 0.125 C 404.207031 0.125 406.722656 -2.386719 406.722656 -5.484375 C 406.722656 -8.585938 404.207031 -11.097656 401.109375 -11.097656 L 367.855469 -11.097656 C 364.757812 -11.097656 362.246094 -8.585938 362.246094 -5.484375 Z M 362.246094 16.824219 C 362.246094 19.921875 364.757812 22.433594 367.855469 22.433594 L 401.109375 22.433594 C 404.207031 22.433594 406.722656 19.921875 406.722656 16.824219 C 406.722656 13.722656 404.207031 11.210938 401.109375 11.210938 L 367.855469 11.210938 C 364.757812 11.210938 362.246094 13.722656 362.246094 16.824219 Z M 204.347656 189.582031 L 191.859375 189.582031 C 172 189.582031 155.753906 205.828125 155.753906 225.6875 L 155.753906 236.976562 C 155.753906 238.980469 157.390625 240.617188 159.394531 240.617188 L 236.808594 240.617188 C 238.816406 240.617188 240.449219 238.980469 240.449219 236.976562 L 240.449219 225.6875 C 240.449219 205.828125 224.203125 189.582031 204.347656 189.582031 Z M 198.101562 186.117188 C 209.136719 186.117188 218.136719 177.113281 218.136719 166.078125 C 218.136719 155.042969 209.136719 146.042969 198.101562 146.042969 C 187.066406 146.042969 178.066406 155.042969 178.066406 166.078125 C 178.066406 177.113281 187.066406 186.117188 198.101562 186.117188 Z M 296.945312 189.582031 L 284.460938 189.582031 C 264.601562 189.582031 248.355469 205.828125 248.355469 225.6875 L 248.355469 236.976562 C 248.355469 238.980469 249.992188 240.617188 251.996094 240.617188 L 329.410156 240.617188 C 331.414062 240.617188 333.050781 238.980469 333.050781 236.976562 L 333.050781 225.6875 C 333.050781 205.828125 316.804688 189.582031 296.945312 189.582031 Z M 270.667969 166.078125 C 270.667969 177.113281 279.667969 186.117188 290.703125 186.117188 C 301.738281 186.117188 310.738281 177.113281 310.738281 166.078125 C 310.738281 155.042969 301.738281 146.042969 290.703125 146.042969 C 279.667969 146.042969 270.667969 155.042969 270.667969 166.078125 Z M 389.546875 189.582031 L 377.058594 189.582031 C 357.203125 189.582031 340.957031 205.828125 340.957031 225.6875 L 340.957031 236.976562 C 340.957031 238.980469 342.589844 240.617188 344.597656 240.617188 L 422.011719 240.617188 C 424.015625 240.617188 425.652344 238.980469 425.652344 236.976562 L 425.652344 225.6875 C 425.652344 205.828125 409.40625 189.582031 389.546875 189.582031 Z M 363.269531 166.078125 C 363.269531 177.113281 372.269531 186.117188 383.304688 186.117188 C 394.339844 186.117188 403.339844 177.113281 403.339844 166.078125 C 403.339844 155.042969 394.339844 146.042969 383.304688 146.042969 C 372.269531 146.042969 363.269531 155.042969 363.269531 166.078125 Z M 363.269531 166.078125 " fill-opacity="1" fill-rule="evenodd"/></g></svg>